<mxfile host="Electron" modified="2024-06-28T06:38:38.419Z" agent="Mozilla/5.0 (Windows NT 10.0; Win64; x64) AppleWebKit/537.36 (KHTML, like Gecko) draw.io/24.6.1 Chrome/124.0.6367.207 Electron/30.0.6 Safari/537.36" etag="PjHIjlYzAjK8iHAzXyu0" version="24.6.1" type="device">
  <diagram name="第 1 页" id="FAxyJCZb2OYBetN2Dcmv">
    <mxGraphModel dx="1050" dy="621" grid="1" gridSize="10" guides="1" tooltips="1" connect="1" arrows="1" fold="1" page="1" pageScale="1" pageWidth="827" pageHeight="1169" math="0" shadow="0">
      <root>
        <mxCell id="0" />
        <mxCell id="1" parent="0" />
        <mxCell id="q7TpAXP7ceilFqp9WqNi-12" value="" style="group" vertex="1" connectable="0" parent="1">
          <mxGeometry x="40" y="130" width="266" height="184" as="geometry" />
        </mxCell>
        <mxCell id="q7TpAXP7ceilFqp9WqNi-1" value="" style="endArrow=none;html=1;rounded=0;strokeWidth=4;" edge="1" parent="q7TpAXP7ceilFqp9WqNi-12">
          <mxGeometry width="50" height="50" relative="1" as="geometry">
            <mxPoint x="80" y="50" as="sourcePoint" />
            <mxPoint x="190" y="50" as="targetPoint" />
          </mxGeometry>
        </mxCell>
        <mxCell id="q7TpAXP7ceilFqp9WqNi-2" value="" style="endArrow=none;html=1;rounded=0;strokeWidth=4;" edge="1" parent="q7TpAXP7ceilFqp9WqNi-12">
          <mxGeometry width="50" height="50" relative="1" as="geometry">
            <mxPoint x="80" y="80" as="sourcePoint" />
            <mxPoint x="190" y="80" as="targetPoint" />
          </mxGeometry>
        </mxCell>
        <mxCell id="q7TpAXP7ceilFqp9WqNi-3" value="" style="endArrow=none;html=1;rounded=0;strokeWidth=4;" edge="1" parent="q7TpAXP7ceilFqp9WqNi-12">
          <mxGeometry width="50" height="50" relative="1" as="geometry">
            <mxPoint x="80" y="110" as="sourcePoint" />
            <mxPoint x="190" y="110" as="targetPoint" />
          </mxGeometry>
        </mxCell>
        <mxCell id="q7TpAXP7ceilFqp9WqNi-4" value="" style="endArrow=none;html=1;rounded=0;strokeWidth=4;" edge="1" parent="q7TpAXP7ceilFqp9WqNi-12">
          <mxGeometry width="50" height="50" relative="1" as="geometry">
            <mxPoint x="80" y="140" as="sourcePoint" />
            <mxPoint x="190" y="140" as="targetPoint" />
          </mxGeometry>
        </mxCell>
        <mxCell id="q7TpAXP7ceilFqp9WqNi-5" value="" style="endArrow=none;html=1;rounded=0;strokeWidth=4;" edge="1" parent="q7TpAXP7ceilFqp9WqNi-12">
          <mxGeometry width="50" height="50" relative="1" as="geometry">
            <mxPoint x="80" y="170" as="sourcePoint" />
            <mxPoint x="190" y="170" as="targetPoint" />
          </mxGeometry>
        </mxCell>
        <mxCell id="q7TpAXP7ceilFqp9WqNi-6" value="人身体的五层" style="text;html=1;align=center;verticalAlign=middle;whiteSpace=wrap;rounded=0;fontSize=16;fontColor=#FF9933;" vertex="1" parent="q7TpAXP7ceilFqp9WqNi-12">
          <mxGeometry width="100" height="30" as="geometry" />
        </mxCell>
        <mxCell id="q7TpAXP7ceilFqp9WqNi-7" value="肺主皮毛" style="text;html=1;align=center;verticalAlign=middle;whiteSpace=wrap;rounded=0;fontSize=15;" vertex="1" parent="q7TpAXP7ceilFqp9WqNi-12">
          <mxGeometry x="196" y="35" width="70" height="30" as="geometry" />
        </mxCell>
        <mxCell id="q7TpAXP7ceilFqp9WqNi-8" value="心主血脉" style="text;html=1;align=center;verticalAlign=middle;whiteSpace=wrap;rounded=0;fontSize=15;" vertex="1" parent="q7TpAXP7ceilFqp9WqNi-12">
          <mxGeometry x="196" y="65" width="70" height="30" as="geometry" />
        </mxCell>
        <mxCell id="q7TpAXP7ceilFqp9WqNi-9" value="脾主运化" style="text;html=1;align=center;verticalAlign=middle;whiteSpace=wrap;rounded=0;fontSize=15;" vertex="1" parent="q7TpAXP7ceilFqp9WqNi-12">
          <mxGeometry x="196" y="95" width="70" height="30" as="geometry" />
        </mxCell>
        <mxCell id="q7TpAXP7ceilFqp9WqNi-10" value="肝主筋" style="text;html=1;align=center;verticalAlign=middle;whiteSpace=wrap;rounded=0;fontSize=15;" vertex="1" parent="q7TpAXP7ceilFqp9WqNi-12">
          <mxGeometry x="196" y="125" width="70" height="35" as="geometry" />
        </mxCell>
        <mxCell id="q7TpAXP7ceilFqp9WqNi-11" value="肾主骨" style="text;html=1;align=center;verticalAlign=middle;whiteSpace=wrap;rounded=0;fontSize=15;" vertex="1" parent="q7TpAXP7ceilFqp9WqNi-12">
          <mxGeometry x="196" y="154" width="70" height="30" as="geometry" />
        </mxCell>
        <mxCell id="q7TpAXP7ceilFqp9WqNi-13" value="" style="group" vertex="1" connectable="0" parent="1">
          <mxGeometry x="414" y="130" width="300" height="184" as="geometry" />
        </mxCell>
        <mxCell id="q7TpAXP7ceilFqp9WqNi-14" value="" style="endArrow=none;html=1;rounded=0;strokeWidth=4;" edge="1" parent="q7TpAXP7ceilFqp9WqNi-13">
          <mxGeometry width="50" height="50" relative="1" as="geometry">
            <mxPoint x="80" y="50" as="sourcePoint" />
            <mxPoint x="190" y="50" as="targetPoint" />
          </mxGeometry>
        </mxCell>
        <mxCell id="q7TpAXP7ceilFqp9WqNi-15" value="" style="endArrow=none;html=1;rounded=0;strokeWidth=4;" edge="1" parent="q7TpAXP7ceilFqp9WqNi-13">
          <mxGeometry width="50" height="50" relative="1" as="geometry">
            <mxPoint x="80" y="80" as="sourcePoint" />
            <mxPoint x="190" y="80" as="targetPoint" />
          </mxGeometry>
        </mxCell>
        <mxCell id="q7TpAXP7ceilFqp9WqNi-16" value="" style="endArrow=none;html=1;rounded=0;strokeWidth=4;" edge="1" parent="q7TpAXP7ceilFqp9WqNi-13">
          <mxGeometry width="50" height="50" relative="1" as="geometry">
            <mxPoint x="80" y="110" as="sourcePoint" />
            <mxPoint x="190" y="110" as="targetPoint" />
          </mxGeometry>
        </mxCell>
        <mxCell id="q7TpAXP7ceilFqp9WqNi-17" value="" style="endArrow=none;html=1;rounded=0;strokeWidth=4;" edge="1" parent="q7TpAXP7ceilFqp9WqNi-13">
          <mxGeometry width="50" height="50" relative="1" as="geometry">
            <mxPoint x="80" y="140" as="sourcePoint" />
            <mxPoint x="190" y="140" as="targetPoint" />
          </mxGeometry>
        </mxCell>
        <mxCell id="q7TpAXP7ceilFqp9WqNi-18" value="" style="endArrow=none;html=1;rounded=0;strokeWidth=4;" edge="1" parent="q7TpAXP7ceilFqp9WqNi-13">
          <mxGeometry width="50" height="50" relative="1" as="geometry">
            <mxPoint x="80" y="170" as="sourcePoint" />
            <mxPoint x="190" y="170" as="targetPoint" />
          </mxGeometry>
        </mxCell>
        <mxCell id="q7TpAXP7ceilFqp9WqNi-19" value="五脏的五层" style="text;html=1;align=center;verticalAlign=middle;whiteSpace=wrap;rounded=0;fontSize=16;fontColor=#FF9933;" vertex="1" parent="q7TpAXP7ceilFqp9WqNi-13">
          <mxGeometry width="100" height="30" as="geometry" />
        </mxCell>
        <mxCell id="q7TpAXP7ceilFqp9WqNi-20" value="肺主气，气虚" style="text;html=1;align=center;verticalAlign=middle;whiteSpace=wrap;rounded=0;fontSize=15;" vertex="1" parent="q7TpAXP7ceilFqp9WqNi-13">
          <mxGeometry x="196" y="35" width="94" height="30" as="geometry" />
        </mxCell>
        <mxCell id="q7TpAXP7ceilFqp9WqNi-21" value="心主血，血虚" style="text;html=1;align=center;verticalAlign=middle;whiteSpace=wrap;rounded=0;fontSize=15;" vertex="1" parent="q7TpAXP7ceilFqp9WqNi-13">
          <mxGeometry x="196" y="65" width="94" height="30" as="geometry" />
        </mxCell>
        <mxCell id="q7TpAXP7ceilFqp9WqNi-23" value="肝主阴，阴虚" style="text;html=1;align=center;verticalAlign=middle;whiteSpace=wrap;rounded=0;fontSize=15;" vertex="1" parent="q7TpAXP7ceilFqp9WqNi-13">
          <mxGeometry x="196" y="125" width="94" height="35" as="geometry" />
        </mxCell>
        <mxCell id="q7TpAXP7ceilFqp9WqNi-24" value="肾主阳，阳虚" style="text;html=1;align=center;verticalAlign=middle;whiteSpace=wrap;rounded=0;fontSize=15;" vertex="1" parent="q7TpAXP7ceilFqp9WqNi-13">
          <mxGeometry x="196" y="154" width="104" height="30" as="geometry" />
        </mxCell>
      </root>
    </mxGraphModel>
  </diagram>
</mxfile>
